<?xml version="1.0" encoding="utf-8"?>
<!-- Generator: Adobe Illustrator 17.0.0, SVG Export Plug-In . SVG Version: 6.00 Build 0)  -->
<!DOCTYPE svg PUBLIC "-//W3C//DTD SVG 1.1//EN" "http://www.w3.org/Graphics/SVG/1.1/DTD/svg11.dtd">
<svg version="1.1" id="图层_1" xmlns="http://www.w3.org/2000/svg" xmlns:xlink="http://www.w3.org/1999/xlink" x="0px" y="0px"
	 width="156px" height="156px" viewBox="0 0 156 156" enable-background="new 0 0 156 156" xml:space="preserve">
<g>
	<g>
		<defs>
			<path id="SVGID_3_" d="M44.218,97.592c-4.516,0.29-8.978,1.078-13.254,2.376c-4.281,1.269-8.387,3.06-12.138,5.394
				c-0.142,0.088-0.225,0.257-0.195,0.432c0.039,0.232,0.258,0.389,0.49,0.35c4.313-0.713,8.529-1.289,12.714-1.646
				c4.189-0.329,8.337-0.426,12.443-0.214c6.775,0.271,13.316,1.526,19.791,3.243c-3.209,4.21-6.54,8.39-10.258,12.197
				c-2.412,2.542-5.019,4.885-7.604,7.258c-2.635,2.32-5.315,4.6-8.05,6.844c-0.636,0.523-0.892,1.418-0.567,2.222
				c0.4,0.992,1.532,1.471,2.524,1.071l0.355-0.144c3.789-1.529,7.769-2.896,11.727-4.114c3.939-1.291,7.881-2.539,11.828-3.728
				c7.899-2.39,15.915-4.169,23.903-5.849c8.008-1.592,16.033-2.848,24.184-3.562c8.163-0.587,16.313-0.325,24.795,0.431
				l0.022,0.002c0.172,0.015,0.343-0.077,0.419-0.243c0.1-0.211,0.007-0.462-0.204-0.561c-7.76-3.619-16.353-5.625-25.015-6.338
				c-8.656-0.531-17.399-0.072-25.909,1.474c-8.493,1.635-16.716,4.296-24.709,7.374c-3.929,1.483-7.739,3.205-11.464,5.11
				c1.844-1.802,3.698-3.593,5.645-5.293c5.224-4.7,10.977-8.912,16.212-13.813c0.237-0.223,0.451-0.497,0.611-0.801
				c0.779-1.481,0.209-3.312-1.272-4.09l-0.513-0.269c-7.057-3.704-15.095-5.211-22.99-5.212
				C46.559,97.493,45.386,97.527,44.218,97.592"/>
		</defs>
		<use xlink:href="#SVGID_3_"  overflow="visible" fill="#DCBE92"/>
		<clipPath id="SVGID_2_">
			<use xlink:href="#SVGID_3_"  overflow="visible"/>
		</clipPath>
	</g>
	<g>
		<defs>
			<path id="SVGID_5_" d="M83.475,17.129c32.437,32.751,50.664,76.961,50.669,123.061c0,1.015-0.472,1.699-0.867,2.095
				c-0.397,0.396-1.081,0.867-2.097,0.867l-53.18,0.005l-53.182-0.005c-1.015,0-1.7-0.471-2.097-0.867
				c-0.395-0.396-0.867-1.08-0.867-2.095v-0.002c0.004-46.1,18.232-90.308,50.671-123.06c0.72-0.63,3.068-2.511,5.474-2.496
				C80.406,14.617,82.757,16.499,83.475,17.129 M67.531,5.335L14.349,58.457c-2.779,2.775-4.34,6.54-4.34,10.467L10,140.189
				c-0.001,8.176,6.634,14.805,14.818,14.806L78.001,155l53.181-0.005c8.186-0.001,14.819-6.63,14.818-14.806l-0.008-71.265
				c0-3.926-1.561-7.691-4.34-10.467L88.47,5.335C85.578,2.447,81.79,1.002,78.001,1C74.211,1.002,70.421,2.447,67.531,5.335"/>
		</defs>
		<use xlink:href="#SVGID_5_"  overflow="visible" fill="#DCBE92"/>
		<clipPath id="SVGID_4_">
			<use xlink:href="#SVGID_5_"  overflow="visible"/>
		</clipPath>
	</g>
	<path fill="#DCBE92" d="M94.563,57.882c-0.103,0.119-0.281,0.073-0.345-0.071c-2.4-5.491-7.449-6.028-7.449-6.028l0.04,0.029
		c-1.93-0.407-3.948-0.302-5.74,0.427c-0.035,0.014-0.061,0.048-0.066,0.088c-0.006,0.058,0.036,0.11,0.096,0.116l0.01,0.001
		c2.604,0.265,5.012,0.764,7.175,1.786c1.071,0.505,2.198,0.977,3.193,1.73c1.061,0.678,1.866,1.697,2.498,2.787
		c0.093,0.152,0.297,0.211,0.452,0.119c0,0,3.459-2.95,8.075-4.743c2.535-0.985,5.317-1.146,7.989-0.639l4.073,0.773
		c-0.487-0.423-0.966-0.787-1.444-1.125c-0.147-0.105-0.3-0.208-0.443-0.31c-2.088-1.487-4.141-2.066-6.071-2.066
		C99.832,50.757,94.563,57.882,94.563,57.882"/>
</g>
<rect fill="none" width="156" height="156"/>
</svg>
