<?xml version="1.0" encoding="utf-8"?>
<!-- Generator: Adobe Illustrator 17.0.0, SVG Export Plug-In . SVG Version: 6.00 Build 0)  -->
<!DOCTYPE svg PUBLIC "-//W3C//DTD SVG 1.1//EN" "http://www.w3.org/Graphics/SVG/1.1/DTD/svg11.dtd">
<svg version="1.1" id="图层_1" xmlns="http://www.w3.org/2000/svg" xmlns:xlink="http://www.w3.org/1999/xlink" x="0px" y="0px"
	 width="49px" height="49px" viewBox="0 0 49 49" enable-background="new 0 0 49 49" xml:space="preserve">
<g>
	<g>
		<path fill="#dcbe92" d="M24.5,5C35.252,5,44,13.748,44,24.5S35.252,44,24.5,44S5,35.253,5,24.5S13.748,5,24.5,5 M24.5,2
			C12.074,2,2,12.074,2,24.5C2,36.926,12.074,47,24.5,47S47,36.926,47,24.5C47,12.074,36.926,2,24.5,2L24.5,2z"/>
	</g>
	<path fill="#dcbe92" d="M24.5,28c-0.829,0-1.5-0.671-1.5-1.5v-12c0-0.829,0.671-1.5,1.5-1.5s1.5,0.671,1.5,1.5v12
		C26,27.329,25.329,28,24.5,28z"/>
	<circle fill="#dcbe92" cx="24.5" cy="33.5" r="2.5"/>
</g>
<rect y="0" fill="none" width="49" height="49"/>
</svg>
