<?xml version="1.0" encoding="utf-8"?>
<!-- Generator: Adobe Illustrator 17.0.0, SVG Export Plug-In . SVG Version: 6.00 Build 0)  -->
<!DOCTYPE svg PUBLIC "-//W3C//DTD SVG 1.1//EN" "http://www.w3.org/Graphics/SVG/1.1/DTD/svg11.dtd">
<svg version="1.1" id="图层_1" xmlns="http://www.w3.org/2000/svg" xmlns:xlink="http://www.w3.org/1999/xlink" x="0px" y="0px"
	 width="34px" height="34px" viewBox="0 0 34 34" enable-background="new 0 0 34 34" xml:space="preserve">
<g>
	<g>
		<g>
			<path fill="#DCBE92" d="M26,10c2.206,0,4,1.794,4,4v12c0,2.206-1.794,4-4,4H8c-2.206,0-4-1.794-4-4V14c0-2.206,1.794-4,4-4H26
				 M26,8H8c-3.3,0-6,2.7-6,6v12c0,3.3,2.7,6,6,6h18c3.3,0,6-2.7,6-6V14C32,10.7,29.3,8,26,8L26,8z"/>
		</g>
	</g>
	<g>
		<circle fill="#DCBE92" cx="26" cy="20" r="2"/>
	</g>
	<g>
		<path fill="none" stroke="#DCBE92" stroke-width="2" stroke-miterlimit="10" d="M22,5.945c0,0,0-1.113,0-2.472
			s-1.716-1.929-3.813-1.265L6.813,5.81C4.716,6.474,3,8.589,3,10.509S3,14,3,14"/>
	</g>
</g>
<rect y="0" fill="none" width="34" height="34"/>
</svg>
