<?xml version="1.0" encoding="utf-8"?>
<!-- Generator: Adobe Illustrator 17.0.0, SVG Export Plug-In . SVG Version: 6.00 Build 0)  -->
<!DOCTYPE svg PUBLIC "-//W3C//DTD SVG 1.1//EN" "http://www.w3.org/Graphics/SVG/1.1/DTD/svg11.dtd">
<svg version="1.1" id="图层_1" xmlns="http://www.w3.org/2000/svg" xmlns:xlink="http://www.w3.org/1999/xlink" x="0px" y="0px"
	 width="40px" height="40px" viewBox="0 0 40 40" enable-background="new 0 0 40 40" xml:space="preserve">
<rect x="0" y="0" fill="none" width="40" height="40"/>
<g>
	<g>
		<rect x="11" y="21" fill="#DCBE92" width="4" height="2"/>
		<rect x="18" y="21" fill="#DCBE92" width="4" height="2"/>
		<rect x="25" y="21" fill="#DCBE92" width="4" height="2"/>
		<rect x="11" y="26" fill="#DCBE92" width="4" height="2"/>
		<rect x="18" y="26" fill="#DCBE92" width="4" height="2"/>
		<rect x="25" y="26" fill="#DCBE92" width="4" height="2"/>
		<rect x="11" y="31" fill="#DCBE92" width="4" height="2"/>
		<rect x="18" y="31" fill="#DCBE92" width="4" height="2"/>
		<rect x="25" y="31" fill="#DCBE92" width="4" height="2"/>
	</g>
	<g>
		<g>
			<path fill="#DCBE92" d="M35,18v16c0,1.103-0.897,2-2,2H7c-1.103,0-2-0.897-2-2V18H35 M37,16H3v18c0,2.209,1.791,4,4,4h26
				c2.209,0,4-1.791,4-4V16L37,16z"/>
		</g>
	</g>
	<path fill="#DCBE92" d="M13,5c0,0.552-0.448,1-1,1l0,0c-0.552,0-1-0.448-1-1V3c0-0.552,0.448-1,1-1l0,0c0.552,0,1,0.448,1,1V5z"/>
	<path fill="#DCBE92" d="M29,5c0,0.552-0.448,1-1,1l0,0c-0.552,0-1-0.448-1-1V3c0-0.552,0.448-1,1-1l0,0c0.552,0,1,0.448,1,1V5z"/>
	<path fill="#DCBE92" d="M33,4h-2v1c0,1.657-1.343,3-3,3c-1.657,0-3-1.343-3-3V4H15v1c0,1.657-1.343,3-3,3c-1.657,0-3-1.343-3-3V4H7
		C4.791,4,3,5.791,3,8v6h34V8C37,5.791,35.209,4,33,4z"/>
</g>
</svg>
