<?xml version="1.0" encoding="utf-8"?>
<!-- Generator: Adobe Illustrator 17.0.0, SVG Export Plug-In . SVG Version: 6.00 Build 0)  -->
<!DOCTYPE svg PUBLIC "-//W3C//DTD SVG 1.1//EN" "http://www.w3.org/Graphics/SVG/1.1/DTD/svg11.dtd">
<svg version="1.1" id="图层_1" xmlns="http://www.w3.org/2000/svg" xmlns:xlink="http://www.w3.org/1999/xlink" x="0px" y="0px"
	 width="58px" height="58px" viewBox="0 0 58 58" enable-background="new 0 0 58 58" xml:space="preserve">
<g>
	<g>
		<path fill="#7DD33C" d="M39.555,20.547c0.274,0,0.543,0.005,0.812,0.018C38.945,12.882,30.947,7,21.295,7
			C10.638,7,2,14.17,2,23.014c0,5.185,2.969,9.796,7.574,12.722c0.06,0.037,0.177,0.11,0.177,0.11l-1.865,5.796l6.975-3.526
			c0,0,0.218,0.063,0.328,0.094c1.918,0.53,3.972,0.817,6.106,0.817c0.436,0,0.867-0.017,1.296-0.04
			c-0.395-1.217-0.613-2.499-0.613-3.821C21.979,27.093,29.85,20.547,39.555,20.547z M28.01,14.895c1.497,0,2.708,1.165,2.708,2.604
			c0,1.436-1.211,2.604-2.708,2.604c-1.498,0-2.709-1.167-2.709-2.604C25.301,16.06,26.512,14.895,28.01,14.895z M14.581,20.103
			c-1.497,0-2.709-1.167-2.709-2.604c0-1.439,1.212-2.604,2.709-2.604c1.498,0,2.712,1.165,2.712,2.604
			C17.293,18.936,16.079,20.103,14.581,20.103z"/>
	</g>
	<path fill="#7DD33C" d="M23.398,35.262c0,7.472,7.3,13.53,16.304,13.53c1.802,0,3.536-0.244,5.157-0.693
		c0.093-0.024,0.277-0.08,0.277-0.08L51.026,51l-1.574-4.897c0,0,0.101-0.063,0.15-0.094C53.49,43.538,56,39.644,56,35.262
		c0-7.471-7.297-13.527-16.298-13.527C30.698,21.734,23.398,27.791,23.398,35.262z M43.083,30.602c0-1.213,1.024-2.197,2.288-2.197
		c1.267,0,2.29,0.984,2.29,2.197c0,1.216-1.024,2.201-2.29,2.201C44.107,32.803,43.083,31.818,43.083,30.602z M31.738,30.602
		c0-1.213,1.025-2.197,2.289-2.197c1.265,0,2.29,0.984,2.29,2.197c0,1.216-1.025,2.201-2.29,2.201
		C32.763,32.803,31.738,31.818,31.738,30.602z"/>
</g>
<rect x="0" fill="none" width="58" height="58"/>
</svg>
