<?xml version="1.0" encoding="utf-8"?>
<!-- Generator: Adobe Illustrator 17.0.0, SVG Export Plug-In . SVG Version: 6.00 Build 0)  -->
<!DOCTYPE svg PUBLIC "-//W3C//DTD SVG 1.1//EN" "http://www.w3.org/Graphics/SVG/1.1/DTD/svg11.dtd">
<svg version="1.1" id="图层_1" xmlns="http://www.w3.org/2000/svg" xmlns:xlink="http://www.w3.org/1999/xlink" x="0px" y="0px"
	 width="40px" height="40px" viewBox="0 0 40 40" enable-background="new 0 0 40 40" xml:space="preserve">
<g>
	<g>
		<defs>
			<path id="SVGID_11_" d="M2,17h15V2H2V17z M2,38h15V23H2V38z M23,38h15V23H23V38z M23,2v15h15V2H23z"/>
		</defs>
		<clipPath id="SVGID_2_">
			<use xlink:href="#SVGID_11_"  overflow="visible"/>
		</clipPath>
		<g clip-path="url(#SVGID_2_)">
			<g>
				<path fill="#DCBE92" d="M26,5c4.962,0,9,4.037,9,9v12c0,4.963-4.038,9-9,9H14c-4.962,0-9-4.037-9-9V14c0-4.963,4.038-9,9-9H26
					 M26,2H14C7.373,2,2,7.373,2,14v12c0,6.627,5.373,12,12,12h12c6.627,0,12-5.373,12-12V14C38,7.373,32.627,2,26,2L26,2z"/>
			</g>
		</g>
	</g>
	
		<line fill="none" stroke="#DCBE92" stroke-width="2" stroke-linecap="round" stroke-miterlimit="10" x1="2" y1="20" x2="38" y2="20"/>
</g>
<rect x="0" fill="none" width="40" height="40"/>
</svg>
