<?xml version="1.0" encoding="utf-8"?>
<!-- Generator: Adobe Illustrator 17.0.0, SVG Export Plug-In . SVG Version: 6.00 Build 0)  -->
<!DOCTYPE svg PUBLIC "-//W3C//DTD SVG 1.1//EN" "http://www.w3.org/Graphics/SVG/1.1/DTD/svg11.dtd">
<svg version="1.1" id="图层_1" xmlns="http://www.w3.org/2000/svg" xmlns:xlink="http://www.w3.org/1999/xlink" x="0px" y="0px"
	 width="52px" height="52px" viewBox="0 0 52 52" enable-background="new 0 0 52 52" xml:space="preserve">
<g>
	<g>
		<path fill="#FFFFFF" d="M44,16c1.654,0,3,1.346,3,3v22c0,1.654-1.346,3-3,3H8c-1.654,0-3-1.346-3-3V19c0-1.654,1.346-3,3-3H44
			 M44,13H8c-3.313,0-6,2.686-6,6v22c0,3.314,2.687,6,6,6h36c3.313,0,6-2.686,6-6V19C50,15.686,47.313,13,44,13L44,13z"/>
	</g>
	
		<line fill="none" stroke="#FFFFFF" stroke-width="2" stroke-linecap="round" stroke-miterlimit="10" x1="16" y1="24" x2="16" y2="36"/>
	
		<line fill="none" stroke="#FFFFFF" stroke-width="2" stroke-linecap="round" stroke-miterlimit="10" x1="26" y1="21" x2="26" y2="39"/>
	
		<line fill="none" stroke="#FFFFFF" stroke-width="2" stroke-linecap="round" stroke-miterlimit="10" x1="36" y1="24" x2="36" y2="36"/>
	<path fill="none" stroke="#FFFFFF" stroke-width="2" stroke-linecap="round" stroke-miterlimit="10" d="M18,15v-4
		c0-2.209,1.791-4,4-4h8c2.209,0,4,1.791,4,4v4"/>
</g>
<rect y="0" fill="none" width="52" height="52"/>
</svg>
