<?xml version="1.0" encoding="utf-8"?>
<!-- Generator: Adobe Illustrator 17.0.0, SVG Export Plug-In . SVG Version: 6.00 Build 0)  -->
<!DOCTYPE svg PUBLIC "-//W3C//DTD SVG 1.1//EN" "http://www.w3.org/Graphics/SVG/1.1/DTD/svg11.dtd">
<svg version="1.1" id="图层_1" xmlns="http://www.w3.org/2000/svg" xmlns:xlink="http://www.w3.org/1999/xlink" x="0px" y="0px"
	 width="52px" height="52px" viewBox="0 0 52 52" enable-background="new 0 0 52 52" xml:space="preserve">
<g>
	<path fill="#FFFFFF" d="M48.5,47h-45C2.672,47,2,46.328,2,45.5S2.672,44,3.5,44h45c0.828,0,1.5,0.672,1.5,1.5S49.328,47,48.5,47z"
		/>
	<path fill="#FFFFFF" d="M37,33h2c1.654,0,3,1.346,3,3v11h3V36c0-3.314-2.687-6-6-6h-2V33z"/>
	<g>
		<circle fill="#FFFFFF" cx="17" cy="17" r="3"/>
		<circle fill="#FFFFFF" cx="27" cy="17" r="3"/>
	</g>
	<g>
		<circle fill="#FFFFFF" cx="17" cy="26" r="3"/>
		<circle fill="#FFFFFF" cx="27" cy="26" r="3"/>
	</g>
	<g>
		<circle fill="#FFFFFF" cx="17" cy="34" r="3"/>
		<circle fill="#FFFFFF" cx="27" cy="34" r="3"/>
	</g>
	<path fill="#FFFFFF" d="M10,11c0-1.654,1.346-3,3-3h18c1.654,0,3,1.346,3,3v33h3V11c0-3.314-2.687-6-6-6H13c-3.313,0-6,2.686-6,6
		v33h3V11z"/>
</g>
<rect fill="none" width="52" height="52"/>
</svg>
