<?xml version="1.0" encoding="utf-8"?>
<!-- Generator: Adobe Illustrator 17.0.0, SVG Export Plug-In . SVG Version: 6.00 Build 0)  -->
<!DOCTYPE svg PUBLIC "-//W3C//DTD SVG 1.1//EN" "http://www.w3.org/Graphics/SVG/1.1/DTD/svg11.dtd">
<svg version="1.1" id="图层_1" xmlns="http://www.w3.org/2000/svg" xmlns:xlink="http://www.w3.org/1999/xlink" x="0px" y="0px"
	 width="40px" height="40px" viewBox="0 0 40 40" enable-background="new 0 0 40 40" xml:space="preserve">
<g>
	<g>
		<path fill="#DCBE92" d="M20,4c8.822,0,16,7.177,16,16s-7.178,16-16,16S4,28.823,4,20S11.178,4,20,4 M20,2C10.059,2,2,10.059,2,20
			c0,9.941,8.059,18,18,18s18-8.059,18-18C38,10.059,29.941,2,20,2L20,2z"/>
	</g>
	<g>
		<g>
			<g>
				<path fill="#DCBE92" d="M21.791,27.845c-0.055-0.651,0.304-1.775,0.405-2.102s1.004-3.238,1.267-4.154
					c0.679-2.362,0.165-3.869-0.784-4.53c-0.685-0.477-1.547-0.726-2.814-0.726c-0.659,0-2.684,0.354-4.46,1.251L15,18.836
					c0.203,0,2.475-0.719,3.193-0.2c0.722,0.523,0.43,1.768,0.192,2.532c-0.101,0.324-1.273,4.256-1.459,4.775
					c-0.276,0.771-0.786,2.916,0.862,4.404c1.5,1.355,6.132,0.25,7.196-0.2l0.405-1.251C24.107,29.247,21.896,29.089,21.791,27.845z
					"/>
			</g>
		</g>
		<circle fill="#DCBE92" cx="21.417" cy="11.75" r="2.75"/>
	</g>
</g>
<rect y="0" fill="none" width="40" height="40"/>
</svg>
