<?xml version="1.0" encoding="utf-8"?>
<!-- Generator: Adobe Illustrator 17.0.0, SVG Export Plug-In . SVG Version: 6.00 Build 0)  -->
<!DOCTYPE svg PUBLIC "-//W3C//DTD SVG 1.1//EN" "http://www.w3.org/Graphics/SVG/1.1/DTD/svg11.dtd">
<svg version="1.1" id="图层_1" xmlns="http://www.w3.org/2000/svg" xmlns:xlink="http://www.w3.org/1999/xlink" x="0px" y="0px"
	 width="40px" height="40px" viewBox="0 0 40 40" enable-background="new 0 0 40 40" xml:space="preserve">
<g>
	<g>
		<path fill="#DCBE92" d="M14.65,4.443c1.035,1.919,3.056,3.198,5.35,3.198s4.315-1.279,5.35-3.198
			c0.637,0.219,1.26,0.479,1.867,0.776c-0.624,2.089-0.099,4.421,1.522,6.042c1.146,1.146,2.67,1.777,4.291,1.777
			c0.595,0,1.185-0.088,1.75-0.257c0.298,0.608,0.558,1.231,0.777,1.869c-1.919,1.035-3.198,3.056-3.198,5.35
			c0,2.294,1.279,4.315,3.198,5.35c-0.22,0.638-0.479,1.261-0.777,1.869c-0.566-0.169-1.156-0.258-1.751-0.258
			c-1.62,0-3.144,0.631-4.29,1.777c-1.621,1.621-2.146,3.954-1.522,6.042c-0.607,0.298-1.23,0.557-1.867,0.777
			c-1.035-1.919-3.056-3.199-5.35-3.199s-4.315,1.279-5.35,3.199c-0.637-0.219-1.26-0.479-1.867-0.777
			c0.624-2.089,0.099-4.421-1.522-6.042c-1.146-1.146-2.67-1.777-4.29-1.777c-0.595,0-1.185,0.088-1.751,0.258
			c-0.298-0.608-0.558-1.231-0.777-1.869c1.919-1.035,3.198-3.056,3.198-5.35c0-2.294-1.279-4.315-3.198-5.35
			c0.22-0.638,0.479-1.261,0.777-1.869c0.566,0.169,1.156,0.257,1.75,0.257c1.621,0,3.145-0.631,4.29-1.777
			c1.621-1.62,2.146-3.953,1.522-6.042C13.39,4.921,14.013,4.662,14.65,4.443 M24.056,2C23.824,4.046,22.108,5.641,20,5.641
			S16.176,4.046,15.944,2c-2.091,0.469-4.043,1.296-5.8,2.408c1.278,1.61,1.192,3.949-0.297,5.438
			c-0.796,0.796-1.835,1.191-2.876,1.191c-0.906,0-1.812-0.299-2.562-0.894C3.296,11.9,2.47,13.853,2,15.944
			C4.046,16.176,5.641,17.892,5.641,20c0,2.108-1.595,3.824-3.641,4.056c0.47,2.092,1.296,4.044,2.409,5.8
			c0.75-0.595,1.656-0.895,2.562-0.895c1.041,0,2.08,0.395,2.875,1.191c1.489,1.489,1.576,3.828,0.297,5.438
			c1.756,1.113,3.708,1.939,5.8,2.409c0.232-2.046,1.948-3.641,4.056-3.641s3.824,1.595,4.056,3.641
			c2.091-0.469,4.043-1.296,5.8-2.409c-1.279-1.61-1.192-3.949,0.297-5.438c0.796-0.796,1.835-1.191,2.875-1.191
			c0.906,0,1.813,0.299,2.562,0.895c1.113-1.757,1.939-3.709,2.409-5.8c-2.046-0.232-3.641-1.948-3.641-4.056
			c0-2.108,1.595-3.824,3.641-4.056c-0.47-2.091-1.296-4.044-2.409-5.8c-0.749,0.595-1.656,0.894-2.562,0.894
			c-1.041,0-2.08-0.395-2.876-1.191c-1.489-1.489-1.576-3.828-0.297-5.438C28.1,3.296,26.147,2.47,24.056,2L24.056,2z"/>
	</g>
	<g>
		<circle fill="#DCBE92" cx="20" cy="20" r="7"/>
	</g>
</g>
<rect y="0" fill="none" width="40" height="40"/>
</svg>
