<?xml version="1.0" encoding="utf-8"?>
<!-- Generator: Adobe Illustrator 17.0.0, SVG Export Plug-In . SVG Version: 6.00 Build 0)  -->
<!DOCTYPE svg PUBLIC "-//W3C//DTD SVG 1.1//EN" "http://www.w3.org/Graphics/SVG/1.1/DTD/svg11.dtd">
<svg version="1.1" id="图层_1" xmlns="http://www.w3.org/2000/svg" xmlns:xlink="http://www.w3.org/1999/xlink" x="0px" y="0px"
	 width="44px" height="44px" viewBox="0 0 44 44" enable-background="new 0 0 44 44" xml:space="preserve">
<g>
	<g>
		<path fill="#6B7072" d="M22,11c9.275,0,15.191,5.536,17.802,10.988C37.118,27.452,31.166,33,22,33S6.882,27.452,4.198,21.988
			C6.809,16.536,12.725,11,22,11 M22,9C12,9,5,14.89,2,22c3,6.89,10,13,20,13s17-6.11,20-13C39,14.89,32,9,22,9L22,9z"/>
	</g>
	<g>
		<path fill="#6B7072" d="M22,18c2.206,0,4,1.794,4,4s-1.794,4-4,4s-4-1.794-4-4S19.794,18,22,18 M22,16c-3.313,0-6,2.686-6,6
			s2.687,6,6,6s6-2.686,6-6S25.313,16,22,16L22,16z"/>
	</g>
</g>
<rect x="0" fill="none" width="44" height="44"/>
</svg>
