<?xml version="1.0" encoding="utf-8"?>
<!-- Generator: Adobe Illustrator 17.0.0, SVG Export Plug-In . SVG Version: 6.00 Build 0)  -->
<!DOCTYPE svg PUBLIC "-//W3C//DTD SVG 1.1//EN" "http://www.w3.org/Graphics/SVG/1.1/DTD/svg11.dtd">
<svg version="1.1" id="图层_1" xmlns="http://www.w3.org/2000/svg" xmlns:xlink="http://www.w3.org/1999/xlink" x="0px" y="0px"
	 width="40px" height="40px" viewBox="0 0 40 40" enable-background="new 0 0 40 40" xml:space="preserve">
<g>
	<g>
		<g>
			<defs>
				<rect id="SVGID_9_" x="10" y="10" width="20" height="20"/>
			</defs>
			<clipPath id="SVGID_2_">
				<use xlink:href="#SVGID_9_"  overflow="visible"/>
			</clipPath>
			<path clip-path="url(#SVGID_2_)" fill="#DCBE92" d="M29.501,25.112c0.786,0.942,0.428,2.367,0.157,2.644
				c-0.271,0.281-0.252,0.416-1.553,1.595c-1.309,1.189-3.928,0.376-5.117,0c-1.189-0.377-4.421-2.441-7.409-5.278
				c-3.027-2.874-4.593-6.455-5.233-8.401c-0.639-1.951-0.239-2.656,0-3.315c0.239-0.66,0.677-1.219,1.974-1.962
				c1.294-0.744,1.763-0.178,2.095,0c0.332,0.176,1.781,1.442,2.283,2.639c0.499,1.197,0.262,1.967-0.125,2.33
				c-0.385,0.363-0.659,0.696-0.978,0.921c-0.319,0.221-0.386,0.543-0.338,1.163c0.045,0.622,2.293,3.049,2.736,3.498
				c0.442,0.45,3.369,3.473,4.384,3.705c1.017,0.228,1.385-0.213,1.495-0.333c0.111-0.118,0.511-0.663,0.964-1.041
				c0.456-0.376,1.673-0.273,1.974-0.061C27.111,23.428,28.714,24.165,29.501,25.112L29.501,25.112z M29.501,25.112"/>
		</g>
	</g>
	<g>
		<path fill="#DCBE92" d="M20,4c8.822,0,16,7.177,16,16s-7.178,16-16,16S4,28.823,4,20S11.178,4,20,4 M20,2C10.059,2,2,10.059,2,20
			c0,9.941,8.059,18,18,18s18-8.059,18-18C38,10.059,29.941,2,20,2L20,2z"/>
	</g>
</g>
<rect y="0" fill="none" width="40" height="40"/>
</svg>
