<?xml version="1.0" encoding="utf-8"?>
<!-- Generator: Adobe Illustrator 17.0.0, SVG Export Plug-In . SVG Version: 6.00 Build 0)  -->
<!DOCTYPE svg PUBLIC "-//W3C//DTD SVG 1.1//EN" "http://www.w3.org/Graphics/SVG/1.1/DTD/svg11.dtd">
<svg version="1.1" id="图层_1" xmlns="http://www.w3.org/2000/svg" xmlns:xlink="http://www.w3.org/1999/xlink" x="0px" y="0px"
	 width="84px" height="84px" viewBox="0 0 84 84" enable-background="new 0 0 84 84" xml:space="preserve">
<g>
	<path fill-rule="evenodd" clip-rule="evenodd" fill="#E5E5E5" d="M42,55.233c1.55,0,2.835,1.243,2.835,2.787
		c0,1.544-1.265,2.787-2.835,2.787c-1.55,0-2.815-1.243-2.815-2.787C39.185,56.476,40.45,55.233,42,55.233L42,55.233z M42,82
		c0,0-7.118-2.627-7.118-6.416c0-2.667,2.692-8.702,4.752-12.952c0.714,0.341,1.509,0.541,2.346,0.541
		c0.857,0,1.652-0.201,2.346-0.541c2.08,4.251,4.752,10.286,4.752,12.952C49.118,79.373,42,82,42,82L42,82z M74.696,81.96
		c-1.815,0-3.304-1.464-3.304-3.248c0-9.083-4.222-17.444-11.565-22.977c-1.448-1.083-1.734-3.128-0.612-4.571
		c1.101-1.424,3.182-1.704,4.63-0.602C72.84,57.318,78,67.584,78,78.712C78,80.516,76.531,81.96,74.696,81.96L74.696,81.96z"/>
	<path fill-rule="evenodd" clip-rule="evenodd" fill="#E5E5E5" d="M42,2C28.599,2,17.667,12.727,17.667,25.9
		c0,8.06,4.222,15.559,10.973,19.95C15.158,51.183,6,64.256,6,78.712c0,1.784,1.489,3.248,3.304,3.248
		c1.815,0,3.304-1.464,3.304-3.248c0-15.92,13.176-28.892,29.392-28.892c13.421,0,24.333-10.727,24.333-23.92
		C66.333,12.727,55.421,2,42,2L42,2z M42,43.323c-9.77,0-17.704-7.82-17.704-17.404c0-9.604,7.955-17.403,17.704-17.403
		c9.77,0,17.704,7.82,17.704,17.403C59.725,35.504,51.77,43.323,42,43.323L42,43.323z"/>
</g>
<rect y="0" fill-rule="evenodd" clip-rule="evenodd" fill="none" width="84" height="84"/>
</svg>
