<?xml version="1.0" encoding="utf-8"?>
<!-- Generator: Adobe Illustrator 17.0.0, SVG Export Plug-In . SVG Version: 6.00 Build 0)  -->
<!DOCTYPE svg PUBLIC "-//W3C//DTD SVG 1.1//EN" "http://www.w3.org/Graphics/SVG/1.1/DTD/svg11.dtd">
<svg version="1.1" id="图层_1" xmlns="http://www.w3.org/2000/svg" xmlns:xlink="http://www.w3.org/1999/xlink" x="0px" y="0px"
	 width="36px" height="36px" viewBox="0 0 36 36" enable-background="new 0 0 36 36" xml:space="preserve">
<g>
	<g>
		<path fill="#DCBE92" d="M9.712,12.185C8.859,12.185,8,11.537,8,10.092v-6C8,2.646,8.86,2,9.712,2c0.491,0,0.983,0.203,1.465,0.604
			l2.928,2.439c0.631,0.526,0.993,1.273,0.993,2.049s-0.362,1.522-0.993,2.049l-2.928,2.439
			C10.695,11.98,10.202,12.185,9.712,12.185z M10,4.227v5.73l2.823-2.354C13,7.457,13.098,7.274,13.098,7.092S13,6.727,12.823,6.58
			L10,4.227z"/>
		<path fill="#DCBE92" d="M26.288,12.185L26.288,12.185c-0.49,0-0.983-0.204-1.465-0.604l-2.928-2.439
			c-0.631-0.526-0.993-1.273-0.993-2.049s0.362-1.522,0.993-2.049l2.928-2.439C25.305,2.203,25.797,2,26.288,2
			C27.14,2,28,2.646,28,4.092v6c0,0.548-0.123,1.009-0.366,1.37C27.324,11.921,26.834,12.185,26.288,12.185z M26,4.227L23.177,6.58
			C23,6.727,22.902,6.909,22.902,7.092S23,7.457,23.177,7.604L26,9.957V4.227z"/>
		<path fill="#DCBE92" d="M18,5.092c1.103,0,2,0.897,2,2s-0.897,2-2,2s-2-0.897-2-2S16.897,5.092,18,5.092 M18,3.092
			c-2.209,0-4,1.791-4,4c0,2.209,1.791,4,4,4s4-1.791,4-4C22,4.883,20.209,3.092,18,3.092L18,3.092z"/>
	</g>
	<path fill="#DCBE92" d="M23,18.092H13c-0.553,0-1-0.447-1-1s0.447-1,1-1h10c0.553,0,1,0.447,1,1S23.553,18.092,23,18.092z"/>
	<path fill="#DCBE92" d="M23,22.092H13c-0.553,0-1-0.447-1-1s0.447-1,1-1h10c0.553,0,1,0.447,1,1S23.553,22.092,23,22.092z"/>
	<path fill="#DCBE92" d="M23,26.092H13c-0.553,0-1-0.447-1-1s0.447-1,1-1h10c0.553,0,1,0.447,1,1S23.553,26.092,23,26.092z"/>
	<g>
		<defs>
			<path id="SVGID_13_" d="M30,7.092h-2v6H8v-6H6c-2.209,0-4,1.746-4,3.9v18.2c0,2.154,1.791,3.9,4,3.9h24c2.209,0,4-1.746,4-3.9
				v-18.2C34,8.838,32.209,7.092,30,7.092z"/>
		</defs>
		<clipPath id="SVGID_2_">
			<use xlink:href="#SVGID_13_"  overflow="visible"/>
		</clipPath>
		<g clip-path="url(#SVGID_2_)">
			<path fill="#DCBE92" d="M30,9.092c1.103,0,2,0.852,2,1.9v18.2c0,1.048-0.897,1.9-2,1.9H6c-1.103,0-2-0.852-2-1.9v-18.2
				c0-1.048,0.897-1.9,2-1.9H30 M30,7.092H6c-2.209,0-4,1.746-4,3.9v18.2c0,2.154,1.791,3.9,4,3.9h24c2.209,0,4-1.746,4-3.9v-18.2
				C34,8.838,32.209,7.092,30,7.092L30,7.092z"/>
		</g>
	</g>
</g>
<rect x="0" fill="none" width="36" height="36"/>
</svg>
