<?xml version="1.0" encoding="utf-8"?>
<!-- Generator: Adobe Illustrator 17.0.0, SVG Export Plug-In . SVG Version: 6.00 Build 0)  -->
<!DOCTYPE svg PUBLIC "-//W3C//DTD SVG 1.1//EN" "http://www.w3.org/Graphics/SVG/1.1/DTD/svg11.dtd">
<svg version="1.1" id="图层_1" xmlns="http://www.w3.org/2000/svg" xmlns:xlink="http://www.w3.org/1999/xlink" x="0px" y="0px"
	 width="42px" height="42px" viewBox="0 0 42 42" enable-background="new 0 0 42 42" xml:space="preserve">
<g>
	<path fill-rule="evenodd" clip-rule="evenodd" fill="#394043" d="M21,27.617c0.775,0,1.418,0.622,1.418,1.393
		c0,0.772-0.632,1.393-1.418,1.393c-0.775,0-1.407-0.622-1.407-1.393C19.593,28.238,20.225,27.617,21,27.617L21,27.617z M21,41
		c0,0-3.559-1.313-3.559-3.208c0-1.333,1.346-4.351,2.376-6.476c0.357,0.17,0.755,0.271,1.173,0.271c0.428,0,0.826-0.1,1.173-0.271
		c1.04,2.125,2.376,5.143,2.376,6.476C24.559,39.687,21,41,21,41L21,41z M37.348,40.98c-0.908,0-1.652-0.732-1.652-1.624
		c0-4.541-2.111-8.722-5.782-11.489c-0.724-0.541-0.867-1.564-0.306-2.286c0.551-0.712,1.591-0.852,2.315-0.301
		C36.42,28.659,39,33.792,39,39.356C39,40.258,38.266,40.98,37.348,40.98L37.348,40.98z"/>
	<path fill-rule="evenodd" clip-rule="evenodd" fill="#394043" d="M21,1C14.3,1,8.833,6.363,8.833,12.95
		c0,4.03,2.111,7.779,5.487,9.975C7.579,25.591,3,32.128,3,39.356c0,0.892,0.744,1.624,1.652,1.624c0.908,0,1.652-0.732,1.652-1.624
		c0-7.96,6.588-14.446,14.696-14.446c6.71,0,12.167-5.363,12.167-11.96C33.167,6.363,27.71,1,21,1L21,1z M21,21.662
		c-4.885,0-8.852-3.91-8.852-8.702c0-4.802,3.977-8.702,8.852-8.702c4.885,0,8.852,3.91,8.852,8.702
		C29.862,17.752,25.885,21.662,21,21.662L21,21.662z"/>
</g>
<rect y="0" fill-rule="evenodd" clip-rule="evenodd" fill="none" width="42" height="42"/>
</svg>
