<?xml version="1.0" encoding="utf-8"?>
<!-- Generator: Adobe Illustrator 17.0.0, SVG Export Plug-In . SVG Version: 6.00 Build 0)  -->
<!DOCTYPE svg PUBLIC "-//W3C//DTD SVG 1.1//EN" "http://www.w3.org/Graphics/SVG/1.1/DTD/svg11.dtd">
<svg version="1.1" id="图层_1" xmlns="http://www.w3.org/2000/svg" xmlns:xlink="http://www.w3.org/1999/xlink" x="0px" y="0px"
	 width="48px" height="48px" viewBox="0 0 48 48" enable-background="new 0 0 48 48" xml:space="preserve">
<g>
	<path fill="#FFFFFF" d="M46.5,44h-45C0.672,44,0,43.328,0,42.5S0.672,41,1.5,41h45c0.828,0,1.5,0.672,1.5,1.5S47.328,44,46.5,44z"
		/>
	<path fill="#FFFFFF" d="M35,30h2c1.654,0,3,1.346,3,3v11h3V33c0-3.314-2.687-6-6-6h-2V30z"/>
	<g>
		<circle fill="#FFFFFF" cx="15" cy="14" r="3"/>
		<circle fill="#FFFFFF" cx="25" cy="14" r="3"/>
	</g>
	<g>
		<circle fill="#FFFFFF" cx="15" cy="23" r="3"/>
		<circle fill="#FFFFFF" cx="25" cy="23" r="3"/>
	</g>
	<g>
		<circle fill="#FFFFFF" cx="15" cy="31" r="3"/>
		<circle fill="#FFFFFF" cx="25" cy="31" r="3"/>
	</g>
	<path fill="#FFFFFF" d="M8,8c0-1.654,1.346-3,3-3h18c1.654,0,3,1.346,3,3v33h3V8c0-3.314-2.687-6-6-6H11C7.687,2,5,4.686,5,8v33h3
		V8z"/>
</g>
<rect fill="none" width="48" height="48"/>
</svg>
