<?xml version="1.0" encoding="utf-8"?>
<!-- Generator: Adobe Illustrator 17.0.0, SVG Export Plug-In . SVG Version: 6.00 Build 0)  -->
<!DOCTYPE svg PUBLIC "-//W3C//DTD SVG 1.1//EN" "http://www.w3.org/Graphics/SVG/1.1/DTD/svg11.dtd">
<svg version="1.1" id="图层_1" xmlns="http://www.w3.org/2000/svg" xmlns:xlink="http://www.w3.org/1999/xlink" x="0px" y="0px"
	 width="48px" height="48px" viewBox="0 0 48 48" enable-background="new 0 0 48 48" xml:space="preserve">
<g>
	
		<line fill="none" stroke="#6F6F6F" stroke-width="2" stroke-linecap="round" stroke-linejoin="round" stroke-miterlimit="10" x1="3" y1="45" x2="45" y2="45"/>
	
		<circle fill="none" stroke="#6F6F6F" stroke-width="2" stroke-linecap="round" stroke-linejoin="round" stroke-miterlimit="10" cx="33" cy="24" r="2"/>
	
		<circle fill="none" stroke="#6F6F6F" stroke-linecap="round" stroke-linejoin="round" stroke-miterlimit="10" cx="33" cy="24" r="5"/>
	
		<circle fill="none" stroke="#6F6F6F" stroke-linecap="round" stroke-linejoin="round" stroke-miterlimit="10" cx="33" cy="24" r="7"/>
	<g>
		<path fill="none" stroke="#6F6F6F" stroke-width="2" stroke-linecap="round" stroke-linejoin="round" stroke-miterlimit="10" d="
			M37,15.26V10c0-2.209-1.791-4-4-4H15c-2.209,0-4,1.791-4,4v28c0,2.209,1.791,4,4,4h18c2.209,0,4-1.791,4-4v-5.26"/>
	</g>
	<g>
		<path fill="none" stroke="#6F6F6F" stroke-width="2" stroke-linecap="round" stroke-linejoin="round" stroke-miterlimit="10" d="
			M40,17V9c0-3.314-2.686-6-6-6H14c-3.314,0-6,2.686-6,6v36"/>
		
			<line fill="none" stroke="#6F6F6F" stroke-width="2" stroke-linecap="round" stroke-linejoin="round" stroke-miterlimit="10" x1="40" y1="31" x2="40" y2="45"/>
	</g>
</g>
<rect y="0" fill="none" width="48" height="48"/>
</svg>
