<?xml version="1.0" encoding="utf-8"?>
<!-- Generator: Adobe Illustrator 17.0.0, SVG Export Plug-In . SVG Version: 6.00 Build 0)  -->
<!DOCTYPE svg PUBLIC "-//W3C//DTD SVG 1.1//EN" "http://www.w3.org/Graphics/SVG/1.1/DTD/svg11.dtd">
<svg version="1.1" id="图层_1" xmlns="http://www.w3.org/2000/svg" xmlns:xlink="http://www.w3.org/1999/xlink" x="0px" y="0px"
	 width="48px" height="48px" viewBox="0 0 48 48" enable-background="new 0 0 48 48" xml:space="preserve">
<g>
	<path fill="none" stroke="#6F6F6F" stroke-miterlimit="10" d="M44.401,37.236"/>
	
		<line fill="none" stroke="#6F6F6F" stroke-width="2" stroke-linecap="round" stroke-miterlimit="10" x1="24" y1="18" x2="24" y2="22"/>
	<g>
		<path fill="#6F6F6F" d="M24,22.369c6.095,3.873,16.456,10.509,18.162,11.802c2.177,1.625,1.863,2.609,1.759,2.932l-0.02,0.063
			l-0.016,0.064C43.809,37.537,43.694,38,42.219,38H5.781c-1.473,0-1.59-0.466-1.667-0.775l-0.016-0.062l-0.019-0.06
			c-0.104-0.323-0.418-1.308,1.771-2.942C7.545,32.877,17.905,26.241,24,22.369 M24,20c0,0-17.018,10.793-19.358,12.569
			c-2.213,1.651-3.036,3.369-2.468,5.144C2.557,39.236,3.758,40,5.781,40h36.438c2.028,0,3.229-0.764,3.607-2.287
			c0.567-1.775-0.255-3.493-2.468-5.144C41.018,30.793,24,20,24,20L24,20z"/>
	</g>
	<path fill="none" stroke="#6F6F6F" stroke-width="2" stroke-linecap="round" stroke-miterlimit="10" d="M24,18
		c-2.761,0-5-2.239-5-5s2.239-5,5-5s5,2.239,5,5"/>
</g>
<rect x="0" y="0" fill="none" width="48" height="48"/>
</svg>
