<?xml version="1.0" encoding="utf-8"?>
<!-- Generator: Adobe Illustrator 17.0.0, SVG Export Plug-In . SVG Version: 6.00 Build 0)  -->
<!DOCTYPE svg PUBLIC "-//W3C//DTD SVG 1.1//EN" "http://www.w3.org/Graphics/SVG/1.1/DTD/svg11.dtd">
<svg version="1.1" id="图层_1" xmlns="http://www.w3.org/2000/svg" xmlns:xlink="http://www.w3.org/1999/xlink" x="0px" y="0px"
	 width="48px" height="48px" viewBox="0 0 48 48" enable-background="new 0 0 48 48" xml:space="preserve">
<g>
	<g>
		<path fill="#6F6F6F" d="M13.342,4l0.147,0.001c4.99,0.086,6.707,2.917,8.292,8.461c1.143,3.999-2.287,16.238-3.937,22.126
			c-0.242,0.864-0.462,1.649-0.648,2.33c-0.617,2.26-1.638,3.786-3.033,4.537C13.5,41.812,12.711,42,11.881,42
			c-0.516,0-1.046-0.071-1.575-0.211c-5.049-1.333-6.784-6.91-6.189-19.891C4.49,13.733,6.394,4,13.342,4 M13.342,2
			C8.571,2,2.865,5.496,2.119,21.807C1.578,33.602,2.677,41.844,9.795,43.723C10.497,43.908,11.198,44,11.881,44
			c1.158,0,2.263-0.264,3.229-0.783c1.897-1.021,3.248-2.962,4.015-5.771c0.185-0.677,0.404-1.458,0.645-2.317
			c1.957-6.984,5.233-18.672,3.934-23.216c-1.415-4.95-3.367-9.793-10.18-9.911C13.463,2,13.402,2,13.342,2L13.342,2z"/>
	</g>
	<path fill="none" stroke="#6F6F6F" stroke-width="2" stroke-linecap="round" stroke-miterlimit="10" d="M4,22
		c1.136-0.011,2.231-1.145,2.159-2.736C6.046,16.754,9.578,10.75,15.877,12c5.809,1.153,5.997,8.979,6.123,9.902"/>
	
		<line fill="none" stroke="#6F6F6F" stroke-width="2" stroke-linecap="round" stroke-miterlimit="10" x1="16" y1="12" x2="16.48" y2="9.499"/>
	<g>
		<path fill="#6F6F6F" d="M36.289,7c0.843,0,1.767,0.158,2.749,0.47c6.701,2.121,5.398,11.93,3.125,19.786
			C38.677,39.305,35.412,44,30.519,44c-0.18,0-0.364-0.006-0.551-0.019c-0.544-0.037-1.067-0.139-1.555-0.303
			c-0.784-0.264-1.468-0.692-1.979-1.237c-1.075-1.146-1.549-2.901-1.41-5.218c0.041-0.699,0.085-1.507,0.132-2.402
			c0.323-6.052,0.994-18.647,3.348-22.038C31.046,9.121,33.135,7,36.289,7 M36.289,5c-4.383,0-7.06,3.232-9.428,6.643
			c-2.679,3.859-3.319,15.89-3.703,23.079c-0.047,0.885-0.09,1.688-0.131,2.384c-0.173,2.885,0.482,5.14,1.948,6.703
			c0.746,0.796,1.706,1.396,2.799,1.764c0.645,0.217,1.336,0.354,2.058,0.403C30.064,45.992,30.294,46,30.519,46
			c6.87,0,10.41-7.282,13.565-18.188c4.563-15.771,0.124-20.803-4.443-22.249C38.42,5.175,37.308,5,36.289,5L36.289,5z"/>
	</g>
	<path fill="none" stroke="#6F6F6F" stroke-width="2" stroke-linecap="round" stroke-miterlimit="10" d="M25.278,21.578
		c0.414-0.828,3.093-8.126,8.946-7.363c6.348,0.828,7.765,7.597,6.856,9.921c-0.576,1.473,0.095,2.887,1.165,3.259"/>
	
		<line fill="none" stroke="#6F6F6F" stroke-width="2" stroke-linecap="round" stroke-miterlimit="10" x1="34.108" y1="14.176" x2="34.454" y2="11.672"/>
</g>
<rect x="0" y="0" fill="none" width="48" height="48"/>
</svg>
