<?xml version="1.0" encoding="utf-8"?>
<!-- Generator: Adobe Illustrator 17.0.0, SVG Export Plug-In . SVG Version: 6.00 Build 0)  -->
<!DOCTYPE svg PUBLIC "-//W3C//DTD SVG 1.1//EN" "http://www.w3.org/Graphics/SVG/1.1/DTD/svg11.dtd">
<svg version="1.1" id="图层_1" xmlns="http://www.w3.org/2000/svg" xmlns:xlink="http://www.w3.org/1999/xlink" x="0px" y="0px"
	 width="48px" height="48px" viewBox="0 0 48 48" enable-background="new 0 0 48 48" xml:space="preserve">
<g>
	<path fill="none" stroke="#6F6F6F" stroke-width="2" stroke-linecap="round" stroke-linejoin="round" stroke-miterlimit="10" d="
		M45,31c0,6.627-5.373,12-12,12H15C8.373,43,3,37.627,3,31l0,0c0-6.627,5.373-12,12-12h18C39.627,19,45,24.373,45,31L45,31z"/>
	<path fill="none" stroke="#6F6F6F" stroke-width="2" stroke-linecap="round" stroke-linejoin="round" stroke-miterlimit="10" d="
		M39,25c0,3.314-2.686,6-6,6H15c-3.314,0-6-2.686-6-6l0,0c0-3.314,2.686-6,6-6h18C36.314,19,39,21.686,39,25L39,25z"/>
	
		<line fill="none" stroke="#6F6F6F" stroke-width="2" stroke-linecap="round" stroke-linejoin="round" stroke-miterlimit="10" x1="18" y1="25" x2="30" y2="25"/>
	
		<circle fill="none" stroke="#6F6F6F" stroke-width="2" stroke-linecap="round" stroke-linejoin="round" stroke-miterlimit="10" cx="8.062" cy="14" r="3"/>
	
		<circle fill="none" stroke="#6F6F6F" stroke-width="2" stroke-linecap="round" stroke-linejoin="round" stroke-miterlimit="10" cx="38" cy="35" r="2"/>
	
		<circle fill="none" stroke="#6F6F6F" stroke-width="2" stroke-linecap="round" stroke-linejoin="round" stroke-miterlimit="10" cx="16" cy="6" r="2"/>
</g>
<rect y="0" fill="none" width="48" height="48"/>
</svg>
