<?xml version="1.0" encoding="utf-8"?>
<!-- Generator: Adobe Illustrator 17.0.0, SVG Export Plug-In . SVG Version: 6.00 Build 0)  -->
<!DOCTYPE svg PUBLIC "-//W3C//DTD SVG 1.1//EN" "http://www.w3.org/Graphics/SVG/1.1/DTD/svg11.dtd">
<svg version="1.1" id="图层_1" xmlns="http://www.w3.org/2000/svg" xmlns:xlink="http://www.w3.org/1999/xlink" x="0px" y="0px"
	 width="48px" height="48px" viewBox="0 0 48 48" enable-background="new 0 0 48 48" xml:space="preserve">
<g>
	<g>
		<path fill="none" stroke="#6F6F6F" stroke-width="2" stroke-linecap="round" stroke-miterlimit="10" d="M18.853,24L20,7.572
			C20,5.603,18.654,4,17,4c-1.654,0-3,1.603-3,3.631L15.147,24"/>
	</g>
	<g>
		<path fill="#6F6F6F" d="M25.304,25c1.681,0,3.368,1.467,3.542,3.088L30.761,45H3.239l1.916-16.927C5.328,26.465,7.015,25,8.696,25
			H25.304 M25.304,23H8.696c-2.717,0-5.247,2.229-5.53,4.859L1,47h32l-2.166-19.136C30.551,25.229,28.021,23,25.304,23L25.304,23z"
			/>
	</g>
	<g>
		<path fill="#6F6F6F" d="M22.304,27c2.189,0,4.309,1.855,4.539,3.997L28.857,46H5.143L7.16,30.966C7.387,28.853,9.507,27,11.696,27
			H22.304 M22.304,26H11.696c-2.717,0-5.247,2.229-5.53,4.859L4,47h26l-2.166-16.136C27.551,28.229,25.021,26,22.304,26L22.304,26z"
			/>
	</g>
	
		<line fill="none" stroke="#6F6F6F" stroke-width="2" stroke-linecap="round" stroke-miterlimit="10" x1="35" y1="46" x2="35" y2="16"/>
	<path fill="none" stroke="#6F6F6F" stroke-width="2" stroke-linecap="round" stroke-miterlimit="10" d="M43,14c0,1.105-0.895,2-2,2
		H29c-1.105,0-2-0.895-2-2l0,0c0-1.105,0.895-2,2-2h12C42.105,12,43,12.895,43,14L43,14z"/>
	
		<polygon fill="none" stroke="#6F6F6F" stroke-width="2" stroke-linecap="round" stroke-linejoin="round" stroke-miterlimit="10" points="
		42,12 28,12 24,3 46,3 	"/>
</g>
<rect y="0" fill="none" width="48" height="48"/>
</svg>
