<?xml version="1.0" encoding="utf-8"?>
<!-- Generator: Adobe Illustrator 17.0.0, SVG Export Plug-In . SVG Version: 6.00 Build 0)  -->
<!DOCTYPE svg PUBLIC "-//W3C//DTD SVG 1.1//EN" "http://www.w3.org/Graphics/SVG/1.1/DTD/svg11.dtd">
<svg version="1.1" id="图层_1" xmlns="http://www.w3.org/2000/svg" xmlns:xlink="http://www.w3.org/1999/xlink" x="0px" y="0px"
	 width="48px" height="48px" viewBox="0 0 48 48" enable-background="new 0 0 48 48" xml:space="preserve">
<g>
	<g>
		<path fill="#dcbe92" d="M42,10c1.103,0,2,0.897,2,2v24c0,1.103-0.897,2-2,2H6c-1.103,0-2-0.897-2-2V12c0-1.103,0.897-2,2-2H42
			 M42,8H6c-2.209,0-4,1.791-4,4v24c0,2.209,1.791,4,4,4h36c2.209,0,4-1.791,4-4V12C46,9.791,44.209,8,42,8L42,8z"/>
	</g>
	<g>
		<path fill="#dcbe92" d="M38,14c1.103,0,2,0.897,2,2v16c0,1.103-0.897,2-2,2s-2-0.897-2-2V16C36,14.897,36.897,14,38,14 M38,12
			c-2.209,0-4,1.791-4,4v16c0,2.209,1.791,4,4,4s4-1.791,4-4V16C42,13.791,40.209,12,38,12L38,12z"/>
	</g>
	<g>
		<path fill="#dcbe92" d="M19,14c5.514,0,10,4.486,10,10s-4.486,10-10,10S9,29.514,9,24S13.486,14,19,14 M19,12
			c-6.627,0-12,5.373-12,12c0,6.627,5.373,12,12,12s12-5.373,12-12C31,17.373,25.627,12,19,12L19,12z"/>
	</g>
	
		<line fill="none" stroke="#dcbe92" stroke-width="2" stroke-linecap="round" stroke-miterlimit="10" x1="8" y1="24" x2="30" y2="24"/>
	
		<line fill="none" stroke="#dcbe92" stroke-width="2" stroke-linecap="round" stroke-miterlimit="10" x1="9.5" y1="28" x2="28.5" y2="28"/>
	
		<line fill="none" stroke="#dcbe92" stroke-width="2" stroke-linecap="round" stroke-miterlimit="10" x1="11.5" y1="32" x2="26.5" y2="32"/>
	
		<line fill="none" stroke="#dcbe92" stroke-width="2" stroke-linecap="round" stroke-miterlimit="10" x1="11.5" y1="16" x2="26.5" y2="16"/>
	
		<line fill="none" stroke="#dcbe92" stroke-width="2" stroke-linecap="round" stroke-miterlimit="10" x1="9.5" y1="20" x2="28.5" y2="20"/>
</g>
<rect y="0" fill="none" width="48" height="48"/>
</svg>
