<?xml version="1.0" encoding="utf-8"?>
<!-- Generator: Adobe Illustrator 17.0.0, SVG Export Plug-In . SVG Version: 6.00 Build 0)  -->
<!DOCTYPE svg PUBLIC "-//W3C//DTD SVG 1.1//EN" "http://www.w3.org/Graphics/SVG/1.1/DTD/svg11.dtd">
<svg version="1.1" id="图层_1" xmlns="http://www.w3.org/2000/svg" xmlns:xlink="http://www.w3.org/1999/xlink" x="0px" y="0px"
	 width="48px" height="48px" viewBox="0 0 48 48" enable-background="new 0 0 48 48" xml:space="preserve">
<g>
	<g>
		<path fill="#6F6F6F" d="M38,4c1.103,0,2,0.897,2,2v36c0,1.103-0.897,2-2,2H10c-1.103,0-2-0.897-2-2V6c0-1.103,0.897-2,2-2H38
			 M38,2H10C7.791,2,6,3.791,6,6v36c0,2.209,1.791,4,4,4h28c2.209,0,4-1.791,4-4V6C42,3.791,40.209,2,38,2L38,2z"/>
	</g>
	<line fill="none" stroke="#6F6F6F" stroke-width="2" stroke-miterlimit="10" x1="6" y1="15" x2="42" y2="15"/>
	
		<line fill="none" stroke="#6F6F6F" stroke-width="2" stroke-linecap="round" stroke-miterlimit="10" x1="33" y1="9" x2="37" y2="9"/>
	
		<line fill="none" stroke="#6F6F6F" stroke-width="2" stroke-linecap="round" stroke-miterlimit="10" x1="11" y1="9" x2="12" y2="9"/>
	
		<line fill="none" stroke="#6F6F6F" stroke-width="2" stroke-linecap="round" stroke-miterlimit="10" x1="15" y1="9" x2="16" y2="9"/>
	
		<line fill="none" stroke="#6F6F6F" stroke-width="2" stroke-linecap="round" stroke-miterlimit="10" x1="19" y1="9" x2="20" y2="9"/>
	<g>
		<path fill="#6F6F6F" d="M24,21c4.962,0,9,4.037,9,9s-4.038,9-9,9s-9-4.037-9-9S19.038,21,24,21 M24,19c-6.075,0-11,4.925-11,11
			c0,6.075,4.925,11,11,11s11-4.925,11-11C35,23.925,30.075,19,24,19L24,19z"/>
	</g>
	<g>
		<path fill="#6F6F6F" d="M24,23c3.86,0,7,3.14,7,7s-3.14,7-7,7s-7-3.14-7-7S20.14,23,24,23 M24,22c-4.418,0-8,3.582-8,8
			c0,4.418,3.582,8,8,8s8-3.582,8-8C32,25.582,28.418,22,24,22L24,22z"/>
	</g>
</g>
<rect y="0" fill="none" width="48" height="48"/>
</svg>
