<?xml version="1.0" encoding="utf-8"?>
<!-- Generator: Adobe Illustrator 17.0.0, SVG Export Plug-In . SVG Version: 6.00 Build 0)  -->
<!DOCTYPE svg PUBLIC "-//W3C//DTD SVG 1.1//EN" "http://www.w3.org/Graphics/SVG/1.1/DTD/svg11.dtd">
<svg version="1.1" id="图层_1" xmlns="http://www.w3.org/2000/svg" xmlns:xlink="http://www.w3.org/1999/xlink" x="0px" y="0px"
	 width="48px" height="48px" viewBox="0 0 48 48" enable-background="new 0 0 48 48" xml:space="preserve">
<g>
	<g>
		<path fill="#6F6F6F" d="M36,4c1.103,0,2,0.897,2,2v36c0,1.103-0.897,2-2,2H12c-1.103,0-2-0.897-2-2V6c0-1.103,0.897-2,2-2H36
			 M36,2H12C9.791,2,8,3.791,8,6v36c0,2.209,1.791,4,4,4h24c2.209,0,4-1.791,4-4V6C40,3.791,38.209,2,36,2L36,2z"/>
	</g>
	<line fill="none" stroke="#6F6F6F" stroke-width="2" stroke-miterlimit="10" x1="8" y1="21" x2="40" y2="21"/>
	
		<line fill="none" stroke="#6F6F6F" stroke-width="2" stroke-linecap="round" stroke-miterlimit="10" x1="15" y1="14" x2="15" y2="10"/>
	
		<line fill="none" stroke="#6F6F6F" stroke-width="2" stroke-linecap="round" stroke-miterlimit="10" x1="15" y1="32" x2="15" y2="28"/>
</g>
<rect x="0" y="0" fill="none" width="48" height="48"/>
</svg>
