<?xml version="1.0" encoding="utf-8"?>
<!-- Generator: Adobe Illustrator 17.0.0, SVG Export Plug-In . SVG Version: 6.00 Build 0)  -->
<!DOCTYPE svg PUBLIC "-//W3C//DTD SVG 1.1//EN" "http://www.w3.org/Graphics/SVG/1.1/DTD/svg11.dtd">
<svg version="1.1" id="图层_1" xmlns="http://www.w3.org/2000/svg" xmlns:xlink="http://www.w3.org/1999/xlink" x="0px" y="0px"
	 width="64px" height="64px" viewBox="0 0 64 64" enable-background="new 0 0 64 64" xml:space="preserve">
<path fill="none" stroke="#DCBE92" stroke-width="2" stroke-miterlimit="10" d="M1,49V31c0-3.314,2.686-6,6-6h50
	c3.314,0,6,2.686,6,6v18"/>
<path fill="none" stroke="#DCBE92" stroke-width="2" stroke-miterlimit="10" d="M9,49v2c0,1.105-0.895,2-2,2H3c-1.105,0-2-0.895-2-2
	v-2"/>
<path fill="none" stroke="#DCBE92" stroke-width="2" stroke-miterlimit="10" d="M63,49v2c0,1.105-0.895,2-2,2h-4
	c-1.105,0-2-0.895-2-2v-2"/>
<path fill="none" stroke="#DCBE92" stroke-width="2" stroke-miterlimit="10" d="M9,49v-1c0-1.105,0.895-2,2-2h42
	c1.105,0,2,0.895,2,2v1"/>
<line fill="none" stroke="#DCBE92" stroke-width="2" stroke-miterlimit="10" x1="1" y1="40" x2="63" y2="40"/>
<path fill="none" stroke="#DCBE92" stroke-width="2" stroke-miterlimit="10" d="M5,25V15c0-3.314,2.686-6,6-6h42
	c3.314,0,6,2.686,6,6v10"/>
<path fill="none" stroke="#DCBE92" stroke-width="2" stroke-miterlimit="10" d="M9,25v-6c0-2.209,1.791-4,4-4h10
	c2.209,0,4,1.791,4,4v6"/>
<path fill="none" stroke="#DCBE92" stroke-width="2" stroke-miterlimit="10" d="M37,25v-6c0-2.209,1.791-4,4-4h10
	c2.209,0,4,1.791,4,4v6"/>
<rect fill="none" width="64" height="64"/>
</svg>
